<?xml version="1.0" encoding="utf-8"?>
<!-- Generator: Adobe Illustrator 27.5.0, SVG Export Plug-In . SVG Version: 6.00 Build 0)  -->
<svg version="1.1" xmlns="http://www.w3.org/2000/svg" xmlns:xlink="http://www.w3.org/1999/xlink" x="0px" y="0px"
	 viewBox="0 0 2441 1638.934" style="enable-background:new 0 0 2441 1638.934;" xml:space="preserve">
<g id="Bg">
	<rect style="opacity:0;fill:#FFFFFF;" width="2441" height="1638.93"/>
</g>
<g id="Layer_1">
	<g>
		<g>
			<polygon style="fill:#0C8FE7;" points="1839.229,726.429 1839.591,726.429 1839.591,780.148 1839.229,780.148 1839.229,991.354 
				1864.555,991.354 1864.555,672.027 1839.229,672.027 			"/>
		</g>
		<g>
			<path style="fill:#0C8FE7;" d="M1143.365,245.441c0,0-0.73,2.325-1.986,5.963c1.82,0.549,3.648,1.039,5.452,1.64
				c1.828-2.412,3.707-4.345,5.624-5.656c-0.284-3.004-0.419-8.803,1.227-15.491h-8.585
				C1145.276,235.984,1144.802,240.468,1143.365,245.441z"/>
		</g>
		<g>
			<path style="fill:#0C8FE7;" d="M1157.662,245.441c1.528,0,3.112,0.139,4.742,0.391c1.758-3.74,5.131-9.222,10.843-13.933h-7.97
				c-3.627,4.676-7.196,9.521-10.228,14.099C1155.917,245.689,1156.787,245.441,1157.662,245.441z"/>
		</g>
		<g>
			<path style="fill:#0C8FE7;" d="M1172.708,248.756c4.833,1.466,11.934,5.347,19.947,10.667h218.197l-135.442,180.65
				c3.991,0.297,8.182,1.134,12.453,3.074c19.146,8.702,8.702,46.994,8.702,46.994s0.006-0.077,0.009-0.103
				c-4.501,20.056-16.767,39.486-29.309,43.734c15.076,25.339,39.135,67.612,38.205,77.847c-0.413,4.527-6.022,13.568-14.298,24.299
				c0.038,0.188,0.111,0.539,0.121,0.594c0.252,1.388-0.669,2.718-2.06,2.974c-0.149,0.031-0.311,0.045-0.461,0.045
				c-0.131,0-0.226-0.109-0.353-0.127c-10.987,13.782-25.673,29.664-39.5,42.51c-2.464,5.718-4.488,9.417-4.687,9.775
				c-0.47,0.836-1.343,1.306-2.232,1.306c-0.43,0-0.86-0.106-1.249-0.331c-0.923-0.513-1.202-1.502-1.101-2.486
				c-6.134,5.195-11.769,9.359-16.533,12.106c-6.752,5.736-13.851,11.271-21.233,16.471l10.819,61.273l29.28,8.883
				c-11.672-5.033-19.784-8.428-19.784-8.428l115.523,29.662l180.697-265.812v-52.898h35.96l157.722-232.015h92.028v-0.227h35.103
				v232.242h25.327V231.899h-1.603v233.484h-10.345V244.588h-181.343c0,0,7.086-10.017,7.383-12.689h-482.1
				c-9.223,4.039-20.771,9.415-30.203,14.79C1168.419,247.223,1170.537,247.901,1172.708,248.756z"/>
		</g>
		<g>
			<path style="fill:#0C8FE7;" d="M1839.229,1390.139h-1.041v14.192H916.963c0.076,0.339,0.115,0.52,0.115,0.52h-85.079
				c0,0-0.076-0.289-0.137-0.52h-0.592l-0.018,0.907H613.067l0.122-0.907H377.642v-12.797l-0.388,0.014v-349.91
				c-18.897,8.206-29.63,12.182-29.63,12.182v164.564c2.308-1.949,4.275-3.765,4.275-3.765v207.607h192.865v11.243h1115.077v-11.243
				h192.863v-207.607c0,0,11.672,10.832,11.672,8.03v210.821h0.179v-323.402h-25.327V1390.139z"/>
		</g>
		<g>
			<rect x="1839.229" y="997.135" style="fill:#0C8FE7;" width="25.327" height="107.15"/>
		</g>
		<g>
			<rect x="1792.939" y="672.027" style="fill:#171932;" width="46.29" height="54.403"/>
		</g>
		<g>
			<polygon style="fill:#171932;" points="1792.939,389.736 1792.939,491.438 1839.229,491.438 1839.229,259.196 1804.126,259.196 
				1804.126,259.423 1712.098,259.423 1554.376,491.438 1738.827,491.438 			"/>
		</g>
		<g>
			<path style="fill:#171932;" d="M1246.959,311.74c8.701,21.755,3.482,134.018,3.482,134.018s11.066-6.72,24.968-5.685
				l135.442-180.65h-218.197C1213.976,273.581,1241.301,297.595,1246.959,311.74z"/>
		</g>
		<g>
			<path style="fill:#171932;" d="M1353.004,879.015c0,0-1.189-2.729-3.099-6.882l-12.25,4.803c2.88,1.56,5.742,3.143,8.603,4.735
				c-0.193-0.201-0.295-0.308-0.295-0.308s1.033,0.624,2.821,1.709c20.698,11.608,40.746,23.968,59.1,36.42
				c28.76,18.004,60.09,38.114,76.469,50.22l100.86-189.563h-72.603v-53.719h101.186l28.945-54.403h-124.324V544.336
				l-180.697,265.812l10.189,2.617L1353.004,879.015z"/>
		</g>
		<g>
			<polygon style="fill:#0C8FE7;" points="1214.6,789.075 1212.712,780.091 1214.275,788.95 			"/>
		</g>
		<g>
			<path style="fill:#0C8FE7;" d="M1249.161,603.459c-0.647,1.033-1.235,2.047-2.03,3.12c0.959-0.873,1.837-1.855,2.612-2.972
				C1249.545,603.539,1249.337,603.573,1249.161,603.459z"/>
		</g>
		<g>
			<path style="fill:#0C8FE7;" d="M1254.993,587.255c-0.67,4.146-1.811,7.866-3.313,11.299c0.251-0.034,0.459-0.062,0.76-0.091
				C1253.704,595.216,1254.498,591.401,1254.993,587.255z"/>
		</g>
		<g>
			<polygon style="fill:#0C8FE7;" points="588.578,1356.163 610.511,1356.163 619.649,1356.046 626.379,1305.745 			"/>
		</g>
		<g>
			<polygon style="fill:#0C8FE7;" points="1738.827,491.438 1792.939,491.438 1792.939,389.736 			"/>
		</g>
		<g>
			<polygon style="fill:#0C8FE7;" points="1792.939,726.429 1792.939,672.027 1642.74,672.027 1613.795,726.429 			"/>
		</g>
		<g>
			<path style="fill:#0C8FE7;" d="M1484.353,969.712c4.386,3.243,7.759,5.941,9.652,7.836
				c13.701,13.701,41.761,173.228,52.107,234.446l19.881,83.913l3.135-0.062l223.812-463.813v-51.882h-207.727L1484.353,969.712z"/>
		</g>
		<g>
			<path style="fill:#171932;" d="M377.254,1391.547l0.388-0.014v12.797h235.547l6.46-48.284l-9.138,0.117h-21.934l37.801-50.419
				l38.252-285.917c0.128-1.739,0.353-3.181,0.568-4.249l0.365-2.723c0,0,0.101,0.022,0.254,0.059
				c10.196-50.249,94.44-99.767,171.269-136.603l-12.646-4.886l6.971-51.318l129.858-38.805l-1.327,7.646l-78.027,31.158
				l51.39,16.445l2.817,1.497l16.737-8.298l0.004-0.001l7.081-40.801h-0.002l11.214-64.622c0.463,0.244,0.929,0.524,1.388,0.754
				c41.625,20.758,102.661,46.607,175.615,21.569c4.754-1.632,9.555-3.465,14.409-5.545c13.8-5.913,26.96-13.646,39.314-22.349
				c7.382-5.199,14.481-10.734,21.233-16.471c-0.556,0.32-1.174,0.742-1.703,1.02c0,0,15.526-20.845,29.775-44.549
				c0.915-3.858,1.659-7.855,2.089-11.968l-28.573,11.584l-3.738,14.635l-4.233-11.124l-0.528,0.192
				c-1.738,0.73-3.463,1.421-5.191,2.099c-0.904,16.803-4.719,45.341-4.894,46.702c-0.181,1.286-1.272,2.22-2.542,2.22
				c-0.11,0-0.228-0.005-0.339-0.026c-1.401-0.184-2.391-1.476-2.202-2.874c0.044-0.32,3.619-27.084,4.723-44.011
				c-3.297,1.194-6.566,2.301-9.774,3.248l-12.369,16.84V672.62c-38.825,8.831-68.963,3.779-71.468,3.325
				c-0.11-0.019-0.269-0.048-0.269-0.048s-7.688,0.956-19.128,1.202c-15.89,0.341-39.067-0.698-59.388-7.665
				c-23.862-8.179-63.14-27.55-86.997-45.425c-9.754-7.307-16.784-14.324-19.263-20.263c0.707,0.997,1.498,1.882,2.354,2.683
				c-1.29-1.756-2.39-3.458-3.273-5.096c-4.144-20.118,19.227-66.754,19.227-87.094c0-20.341-5.869-35.19-5.869-35.19
				l-26.849,55.883c-1.379-0.031-2.791-0.144-4.247-0.396c-1-0.173-2-0.552-3-0.924c-1.026,5.409-2.871,10.762-6.189,14.068
				c-2.321,2.32-5.132,3.498-8.335,3.498c-0.298,0-0.598-0.012-0.9-0.03c-6.22-0.411-11.213-4.412-12.714-10.197
				c-1.54-5.912,0.962-11.826,6.523-15.426c1.179-0.748,2.779-0.425,3.541,0.761c0.769,1.183,0.43,2.771-0.762,3.541
				c-4.361,2.821-5.1,6.932-4.352,9.832c0.752,2.875,3.272,6.062,8.103,6.376c2.13,0.124,3.812-0.521,5.282-1.98
				c2.703-2.696,4.193-7.705,5.013-12.881c-18.705-12.598-34.372-55.604-20.583-77.271c11.594-18.22,37.034-9.499,49.519-3.715
				c-1.282-17.07-2.891-36.039-3.812-49.848c3.826-5.314,9.882-12.578,18.533-19.666c5.464-4.479,11.951-8.872,19.532-12.627
				c30.323-15.017,64.65-23.846,64.65-23.846l-74.774,40.862c0,0,90.351-26.284,122.198-40.862
				c31.848-14.578,52.767-61.86,52.77-61.86l0,0c0-0.002,0-0.002,0-0.002c0.083-0.157,0.166-0.316,0.247-0.476
				c0.006-0.011,0.007-0.022,0.013-0.033c8.58-16.773,3.182-36.504-10.517-48.016c0.316,0.336,0.698,0.661,0.98,1.002
				c0.901,1.086,0.753,2.701-0.329,3.607c-1.099,0.901-2.701,0.762-3.61-0.326c-5.007-6.008-17.53-12.05-34.921-16.529
				c-1.548-0.017-3.1-0.1-4.632,0.02c-13.29,1.025-40.374,3.171-69.018,10.419c23.335-2.346,41.597,0.893,43.724,2.326
				c1.17,0.788,1.48,2.38,0.69,3.554c-0.741,1.117-2.202,1.451-3.36,0.813c-6.745-2.713-62.283-9.853-107.232,23.369
				c-8.436,6.674-15.875,14.368-21.521,23.492c-25.795,41.687-29.606,95.167-29.977,118.092c3.182,13.286,7.355,21.28,7.477,21.494
				c0.67,1.242,0.222,2.795-1.02,3.478c-0.388,0.216-0.808,0.314-1.23,0.314c-0.9,0-1.781-0.481-2.24-1.332
				c-0.083-0.148-2.031-3.876-4.3-10.288c-1.902,3.325-2.711,5.316-2.711,5.316s-32.074-80.021,24.97-160.238
				c9.101-12.797,19.405-22.749,30.396-30.502h-8.697c-15.658,7.386-28.659,16.883-37.978,28.429
				c-55.336,68.536-32.178,146.408-31.938,147.178c0.439,1.345-0.291,2.786-1.642,3.226c-0.26,0.085-0.53,0.125-0.788,0.125
				c-1.083,0-2.082-0.685-2.434-1.769c-0.259-0.791-24.216-81.338,32.819-151.982c7.919-9.81,18.288-18.245,30.605-25.207H525.956
				c0.297,2.673,7.384,12.689,7.384,12.689H351.997v220.795h-4.373v127.059l2.215,2.214l-2.215,2.218v151.995h95.901v158.296
				h-95.901v146.654c0,0,10.733-3.976,29.63-12.182V1391.547z M925.672,398.597c-0.378-5.885-0.621-10.761-0.621-13.866
				c0-1.784,0.135-3.755,0.334-5.805c5.729-3.824,10.977-6.989,13.526-8.492c1.013-0.597,1.643-0.961,1.643-0.961l-0.02,0.038
				L925.672,398.597z M907.457,393.006c2.512-2.669,6.078-5.601,9.934-8.465c-3.636,2.856-7.031,5.705-9.952,8.485
				C907.446,393.019,907.451,393.013,907.457,393.006z"/>
		</g>
		<g>
			<rect x="347.624" y="754.65" style="fill:#171932;" width="90.119" height="146.733"/>
		</g>
		<g>
			<path style="fill:#171932;" d="M1792.939,780.148v51.882l-223.812,463.813l-3.135,0.062l25.562,107.89h-132.83l0.006,0.015
				h-95.059l0.001-0.015h-446.83c0.037,0.162,0.093,0.41,0.12,0.535h921.225v-14.192h1.041v-280.073h-64.717V991.354h64.717V780.148
				H1792.939z"/>
		</g>
		<g>
			<rect x="1780.293" y="997.135" style="fill:#171932;" width="58.936" height="107.15"/>
		</g>
		<g>
			<path style="fill:#171932;" d="M831.281,1403.796l-0.011,0.535h0.592c-0.042-0.157-0.072-0.276-0.139-0.535H831.281z"/>
		</g>
		<g>
			<path style="fill:#F2E0E0;" d="M1852.608,244.588v220.795h10.345V231.899v-0.673h-184.676c0.326,0,0.417,0.262,0.371,0.673
				c-0.297,2.673-7.383,12.689-7.383,12.689H1852.608z"/>
		</g>
		<g>
			<path style="fill:#F2E0E0;" d="M1852.704,1214.617v207.607h-192.863v11.243v0.6h204.535v-0.6v-210.821
				C1864.376,1225.449,1852.704,1214.617,1852.704,1214.617z"/>
		</g>
		<g>
			<path style="fill:#F2E0E0;" d="M351.997,244.588H533.34c0,0-7.087-10.017-7.384-12.689c-0.045-0.41,0.046-0.673,0.372-0.673
				H341.651v234.157h5.973h4.373V244.588z"/>
		</g>
		<g>
			<path style="fill:#F2E0E0;" d="M351.899,1422.224v-207.607c0,0-1.967,1.816-4.275,3.765c-3.335,2.818-7.395,5.921-7.395,4.264
				v211.421h204.535v-0.6v-11.243H351.899z"/>
		</g>
		<g>
			<polygon style="fill:#0C8FE7;" points="1866.808,931.256 1915.678,931.256 1915.678,991.354 1864.555,991.354 1839.229,991.354 
				1774.512,991.354 1774.512,1110.066 1839.229,1110.066 1864.555,1110.066 1895.048,1110.066 1895.048,1104.285 
				1864.555,1104.285 1839.229,1104.285 1780.293,1104.285 1780.293,997.135 1839.229,997.135 1864.555,997.135 1921.459,997.135 
				1921.459,925.475 1866.808,925.475 			"/>
		</g>
		<g>
			<path style="fill:#0C8FE7;" d="M1348.783,883.072c8.021,4.866,32.396,19.701,59.1,36.42
				C1389.529,907.04,1369.481,894.68,1348.783,883.072z"/>
		</g>
		<g>
			<path style="fill:#0C8FE7;" d="M831.314,1402.215l-0.033,1.58h0.442C831.619,1403.401,831.477,1402.848,831.314,1402.215z"/>
		</g>
		<g>
			<path style="fill:#0C8FE7;" d="M801.792,1244.623c-8.777-66.826-22.478-133.601-39.234-156.434
				c-7.213-9.83-33.073-32.569-53.841-34.384c-3.486-0.305-6.674-0.737-9.642-1.261c-4.205,43.448-17.238,203.186,12.958,252.072
				c28.374,45.941,89.326,60.816,111.563,64.823C817.304,1340.807,808.637,1296.775,801.792,1244.623z"/>
		</g>
		<g>
			<path style="fill:#959BAB;" d="M1052.067,899.624l37.531,71.023l0.66,0.394l0.002-0.002l37.18-71.415l117.006-63.072
				l-26.349-11.397c-2.769,15.303-14.407,28.114-30.503,31.397c-32.489,6.627-81.798,14.647-129.397,14.791
				c-17.636-15.701-41.741-38.57-44.341-48.438c-4.148-15.746-7.191-62.136-7.191-62.136c8.408,8.96,83.696,22.925,113.441,8.149
				c7.71-3.831,17.757-12.307,28.053-22.269c-72.954,25.039-133.99-0.81-175.615-21.569c-0.459-0.231-0.925-0.51-1.388-0.754
				l-11.214,64.622h0.002l-7.081,40.801l-0.004,0.001l-16.737,8.298L1052.067,899.624z"/>
		</g>
		<g>
			<path style="fill:#F2E0E0;" d="M1006.666,760.771c0,0,3.043,46.39,7.191,62.136c2.6,9.868,26.705,32.737,44.341,48.438
				c47.599-0.144,96.909-8.164,129.397-14.791c16.096-3.283,27.733-16.095,30.503-31.397l-1.365-0.589l-2.46-35.617h0.002
				l-1.563-8.858l-0.013-0.061h0.003l-10.819-61.273c-12.354,8.702-25.513,16.435-39.314,22.349
				c-4.854,2.08-9.655,3.913-14.409,5.545c-10.296,9.962-20.343,18.438-28.053,22.269
				C1090.362,783.695,1015.074,769.73,1006.666,760.771z M1132.761,782.603c0,0-4.232,29.615-55.844,40.417
				c-51.61,10.803-32.189-38.552-32.189-38.552s15.678,15.533,47.398,15.565C1119.707,800.062,1132.761,782.603,1132.761,782.603z"
				/>
		</g>
		<g>
			<path style="fill:#959BAB;" d="M1044.727,784.468c0,0-19.421,49.355,32.189,38.552c51.612-10.801,55.844-40.417,55.844-40.417
				s-13.053,17.459-40.635,17.43C1060.406,800.001,1044.727,784.468,1044.727,784.468z"/>
		</g>
		<g>
			<path style="fill:#F2E0E0;" d="M1028.335,527.107c0.568,1.665,0.924,2.833,0.924,2.833s-20.276-6.358-20.783-2.493
				c-1.671,12.741,16.559,11.159,19.722,9.702c0.781-0.361,3.77-1.699,7.862-3.456
				C1032.097,531.451,1029.345,529.061,1028.335,527.107z"/>
		</g>
		<g>
			<path style="fill:#F2E0E0;" d="M1080.598,563.036c-0.021,0.005-0.065,0.013-0.087,0.017c0.029,0.006,0.076,0.015,0.105,0.021
				C1080.944,563.042,1081.401,562.956,1080.598,563.036z"/>
		</g>
		<g>
			<path style="fill:#F2E0E0;" d="M1102.767,543.213c0.945,0.17,1.886,0.344,2.684,0.671
				C1104.651,543.557,1103.747,543.341,1102.767,543.213z"/>
		</g>
		<g>
			<path style="fill:#F2E0E0;" d="M1080.471,563.047c-0.033,0.011,0.022,0.006,0.017,0.012c0.005-0.001,0.017-0.003,0.023-0.006
				C1080.5,563.053,1080.482,563.05,1080.471,563.047z"/>
		</g>
		<g>
			<path style="fill:#F2E0E0;" d="M933.164,609.656c-2.32-2.694-4.645-5.432-6.978-8.321c0.884,1.638,1.983,3.339,3.273,5.096
				c0.232,0.215,0.394,0.522,0.637,0.724C930.944,607.855,932.075,608.771,933.164,609.656z"/>
		</g>
		<g>
			<path style="fill:#F2E0E0;" d="M1201.471,638.246c-0.636-1.097-0.478-2.501,0.547-3.294c1.12-0.861,2.701-0.665,3.57,0.439
				c0.016,0.021,0.109,0.152,0.169,0.237c18.2-11.142,32.877-21.853,40.871-28.474c0.193-0.159,0.32-0.404,0.504-0.575
				c0.794-1.073,1.383-2.087,2.03-3.12c-0.528-0.342-0.957-0.856-1.12-1.51c-0.339-1.373,0.491-2.753,1.859-3.098
				c0.106-0.026,0.797-0.166,1.781-0.298c1.501-3.433,2.642-7.153,3.313-11.299c0.034-0.289,0.083-0.563,0.115-0.853
				c-0.503-1.795-16.788-59.758-27.012-78.199c-10.384-18.73,6.399-36.663,6.399-36.663l16.042,33.183
				c-0.177-1.206-0.417-2.324-0.458-3.724c-0.544-18.454,11.192-50.794,29.308-43.964c-19.786-7.87-36.456-0.931-36.456-0.931
				s-15.968-12.222-16.516-18.865c-0.546-6.642,3.275-28.94,3.275-28.94s-18.144-6.566-23.534-22.613
				c-0.055-0.131-0.109-0.278-0.162-0.413c-0.135-0.425-0.362-0.78-0.478-1.219c-0.031-0.112-0.061-0.253-0.092-0.37
				c-4.308-11.838-6.752-32.423-13.097-48.742c-4.474-10.156-10.634-18.903-19.509-23.291c-22.806-11.672-47.581-7.273-47.581-7.273
				s9.559-35.452,21.595-51.333c-1.804-0.602-3.632-1.091-5.452-1.64c-2.413,6.99-6.857,19.057-12.428,30.427
				c-0.006,0.011-0.007,0.022-0.013,0.033c-0.081,0.16-0.164,0.319-0.247,0.476v0.002c-0.003,0-20.922,47.282-52.77,61.86
				c-31.846,14.579-122.198,40.862-122.198,40.862l74.774-40.862c0,0-34.327,8.829-64.65,23.846
				c-7.581,3.755-14.067,8.148-19.532,12.627c0.945,5.721,1.648,10.294,1.845,12.329c0.812,8.389,4.794,135.567,17.863,169.318
				c20.266,52.331,114.61,106.847,128.729,114.776c11.44-0.246,19.128-1.202,19.128-1.202s0.159,0.028,0.269,0.048
				c0.115-0.022,0.231-0.024,0.344-0.048C1143.215,669.481,1175.546,653.718,1201.471,638.246z M1165.762,449.587
				c0,6.82-5.529,12.349-12.348,12.349c-6.82,0-12.347-5.529-12.347-12.349c0-2.099,0.659-3.984,1.583-5.714
				c-11.879-0.099-17.414-1.99-17.414-1.99s22.189-11.68,37.699-4.448c15.51,7.232,20.9,13.419,20.9,13.419
				s-8.756-2.41-18.704-4.395C1165.405,447.482,1165.762,448.478,1165.762,449.587z M1125.997,387.609
				c0,0,2.881,10.66,10.228,12.099c13.859,2.719,80.509,12.166,80.509,12.166s-3.79,16.274-7.527,17.378
				c-3.558,1.051-85.652,2.088-98.362-5.225l-0.004,0.125c0,0-0.414-0.293-1.036-0.901c-0.126-0.129-0.41-0.238-0.495-0.371
				c-0.054-0.081-0.063-0.189-0.111-0.271c-1.826-2.016-4.664-6.194-5.777-13.681c-1.808-12.15,8.46-24.196,8.46-24.196
				l-0.661,25.081C1116.179,399.385,1125.997,387.609,1125.997,387.609z M1103.036,422.638c0,0-5.415-3.387-7.909-14.591
				c-2.662-11.961,5.397-24.76,5.397-24.76L1103.036,422.638z M1035.248,608.811c-19.003-15.152-40.034-39.066-47.855-54.561
				c-0.825,6.134-2.487,13.818-2.487,13.818s-10.943-21.798-3.192-27.515c1.14-0.84,2.401-1.483,3.703-2.032
				c4.544-11.724,21.117-20.797,28.019-24.135c0.431-0.235,0.835-0.394,1.26-0.596c1.047-0.487,1.697-0.767,1.747-0.786
				c1.873-0.666,3.513-0.82,4.543-0.083c2.673,1.917,5.38,8.608,6.94,13.009c-1.09-7.427,21.548-70.846,21.548-72.443
				c0-3.759-1.841-7.529-5.068-10.542c-2.844,0.459-7.068,0.881-12.621,0.926c0.924,1.731,1.582,3.615,1.582,5.714
				c0,6.82-5.529,12.349-12.349,12.349c-6.819,0-12.348-5.529-12.348-12.349c0-1.109,0.356-2.104,0.631-3.127
				c-9.946,1.985-18.701,4.395-18.701,4.395s4.927-5.545,18.553-12.257c-13.93,0.032-29.341-3.245-34.18-8.19
				c-3.416-0.105-5.778-0.247-6.295-0.41c-3.515-1.102-10.977-18.124-10.977-18.124s66.761-7.197,79.059-12.53
				c12.3-5.331,18.448-15.29,18.448-15.29s4.164,14.342,5.037,26.077l5.889-27.846c0,0,7.107,12.961,2.824,24.368
				c-1.327,3.538-2.952,6.499-4.565,8.989c6,2.982,11.53,8.629,11.53,19.43c0,0.742-0.433,2.266-1.12,4.267
				c0.676-0.304,1.429-0.389,2.133-0.04c1.269,0.619,1.79,2.155,1.17,3.425c-14.254,28.993-28.219,63.152-25.927,67.783
				c2.42,3.857,27.808,4.262,49.954,2.229c1.41-0.061,2.659,0.903,2.789,2.314c0.132,1.411-0.909,2.655-2.31,2.786
				c-0.359,0.033-0.923,0.077-1.332,0.112c-0.716,1.452-1.92,3.391-3.784,5.629c12.842,4.363,31.344,12.586,33.478,13.571
				c3.16,1.457,21.391,3.039,19.719-9.702c-0.507-3.864-20.78,2.493-20.78,2.493s4.206-14.102,8.271-17.019
				c4.068-2.917,17.594,7.972,17.849,10.13c0.648,5.462,1.29,9.868,1.744,13.482c3.887,0.419,8.329,1.465,11.795,4.02
				c7.751,5.717-3.194,27.515-3.194,27.515s-1.684-7.797-2.506-13.949c-0.325-2.439-2.734-5.703-5.513-8.769
				c-0.098,1.53-0.38,2.786-0.924,3.82l0.122-0.088l-0.122,0.088c-0.676,1.241-1.81,2.234-3.38,2.993
				c-6.226,5.38-19.174,16.085-25.383,17.672c-7.745,1.981-40.929-5.52-48.056-6.76c-0.117,0.011-0.144,0.005-0.128-0.015
				c-5.044,1.042-41.708,8.894-49.992,6.775c-1.061-0.271-2.366-0.88-3.754-1.611h-12.79c0,0,16.231,13.97,35.359,23.617
				c0.698,1.322,1.394,2.64,2.054,3.902c4.861,9.261,13.871,15.636,24.232,17.091c14.075,1.975,32.059-4.097,31.949-1.773
				c-0.86,17.85-43.24,19.26-44.951,19.134C1059.36,629.95,1045.606,617.069,1035.248,608.811z"/>
		</g>
		<g>
			<path style="fill:#959BAB;" d="M1107.546,611.059c0.11-2.324-17.874,3.748-31.949,1.773
				c-10.361-1.455-19.371-7.829-24.232-17.091c-0.66-1.262-1.356-2.58-2.054-3.902c-19.128-9.647-35.359-23.617-35.359-23.617h12.79
				c-6.73-3.552-16.465-11.6-21.625-16.061c-1.981-1.711-3.204-2.841-3.385-3.005c-2.12-4.018-0.367-11.192,1.404-26.107
				c0.159-1.333,5.375-5.982,10.3-8.666c-6.902,3.338-23.475,12.411-28.019,24.135c-1.302,0.549-2.563,1.192-3.703,2.032
				c-7.751,5.717,3.192,27.515,3.192,27.515s1.662-7.684,2.487-13.818c7.821,15.495,28.851,39.409,47.855,54.561
				c10.358,8.258,24.112,21.139,27.348,21.382C1064.306,630.319,1106.686,628.909,1107.546,611.059z"/>
		</g>
		<g>
			<path style="fill:#959BAB;" d="M1014.695,513.79c0.59-0.28,1.189-0.588,1.747-0.786
				C1016.392,513.024,1015.743,513.303,1014.695,513.79z"/>
		</g>
		<g>
			<path style="fill:#959BAB;" d="M1036.06,533.692c12.482-5.364,35.308-14.688,37.783-12.491c1.897,1.681,4.139,5.545,5.743,8.565
				c1.602-3.021,3.846-6.885,5.741-8.565c1.07-0.951,5.968,0.27,12.168,2.376c1.864-2.238,3.067-4.177,3.784-5.629
				c-5.475,0.481-15.049,1.192-24.796,1.192c-12.873,0-25.716-1.252-28.658-5.932c-5.101-8.147,16.267-53.586,25.678-72.744
				c0.279-0.552,0.775-0.888,1.298-1.125c0.687-2,1.12-3.525,1.12-4.267c0-10.802-5.53-16.449-11.53-19.43
				c-2.149,3.32-4.242,5.71-5.601,7.077c-0.028,0.048-0.044,0.113-0.071,0.16c-0.09,0.148-0.372,0.272-0.508,0.415
				c-0.553,0.527-0.934,0.857-0.934,0.857l0.023-0.112c-9.832,6.228-63.734,6.937-82.33,6.37c4.839,4.944,20.25,8.221,34.18,8.19
				c0.79-0.388,1.495-0.766,2.345-1.162c15.509-7.233,37.698,4.448,37.698,4.448s-1.552,0.541-4.789,1.063
				c3.227,3.012,5.068,6.782,5.068,10.542c0,1.596-22.638,65.016-21.548,72.443c0.148,0.416,0.284,0.808,0.41,1.177
				C1029.345,529.061,1032.097,531.451,1036.06,533.692z"/>
		</g>
		<g>
			<path style="fill:#0D3285;" d="M1274.248,604.276c0.026-0.69,0.167-1.469,0.135-2.115c-1.229-25.849-15.873-77.333-18.483-86.341
				l-5.364-11.097l-16.042-33.183c0,0-16.783,17.933-6.399,36.663c10.224,18.441,26.509,76.403,27.012,78.199
				c-0.032,0.29-0.081,0.564-0.115,0.853c-0.495,4.146-1.289,7.961-2.552,11.208
				C1256.589,598.043,1265.257,598.168,1274.248,604.276z"/>
		</g>
		<g>
			<path style="fill:#0D3285;" d="M933.164,609.656c-1.089-0.885-2.22-1.8-3.067-2.502c-0.243-0.201-0.405-0.509-0.637-0.724
				c-0.857-0.801-1.648-1.685-2.354-2.683c2.479,5.939,9.509,12.956,19.263,20.263C941.994,619.548,937.593,614.796,933.164,609.656
				z"/>
		</g>
		<g>
			<path style="fill:#171932;" d="M1047.825,513.209c2.943,4.679,15.786,5.932,28.658,5.932c9.747,0,19.321-0.712,24.796-1.192
				c0.409-0.035,0.973-0.079,1.332-0.112c1.401-0.132,2.442-1.375,2.31-2.786c-0.129-1.411-1.379-2.375-2.789-2.314
				c-22.146,2.033-47.534,1.628-49.954-2.229c-2.292-4.631,11.673-38.79,25.927-67.783c0.62-1.269,0.099-2.806-1.17-3.425
				c-0.704-0.349-1.457-0.264-2.133,0.04c-0.524,0.237-1.019,0.574-1.298,1.125C1064.092,459.623,1042.724,505.062,1047.825,513.209
				z"/>
		</g>
		<g>
			<path style="fill:#0D3285;" d="M1057.302,424.038l-0.023,0.112c0,0,0.381-0.329,0.934-0.857c0.135-0.143,0.417-0.267,0.508-0.415
				c0.027-0.046,0.043-0.112,0.071-0.16c1.358-1.367,3.452-3.757,5.601-7.077c1.612-2.49,3.238-5.451,4.565-8.989
				c4.283-11.408-2.824-24.368-2.824-24.368l-5.889,27.846c-0.873-11.735-5.037-26.077-5.037-26.077s-6.148,9.959-18.448,15.29
				c-12.298,5.332-79.059,12.53-79.059,12.53s7.462,17.022,10.977,18.124c0.518,0.164,2.879,0.305,6.295,0.41
				C993.568,430.976,1047.47,430.267,1057.302,424.038z"/>
		</g>
		<g>
			<path style="fill:#171932;" d="M1049.194,441.883c0,0-22.189-11.68-37.698-4.448c-0.849,0.396-1.555,0.774-2.345,1.162
				c-13.626,6.713-18.553,12.257-18.553,12.257s8.755-2.41,18.701-4.395c-0.275,1.023-0.631,2.017-0.631,3.127
				c0,6.82,5.529,12.349,12.348,12.349c6.82,0,12.349-5.529,12.349-12.349c0-2.099-0.658-3.984-1.582-5.714
				c5.553-0.045,9.777-0.467,12.621-0.926C1047.642,442.424,1049.194,441.883,1049.194,441.883z"/>
		</g>
		<g>
			<path style="fill:#0D3285;" d="M1103.421,408.927c1.113,7.487,3.951,11.664,5.777,13.681c0.048,0.082,0.057,0.19,0.111,0.271
				c0.085,0.133,0.37,0.242,0.495,0.371c0.623,0.608,1.036,0.901,1.036,0.901l0.004-0.125c12.71,7.313,94.805,6.276,98.362,5.225
				c3.737-1.103,7.527-17.378,7.527-17.378s-66.65-9.447-80.509-12.166c-7.346-1.439-10.228-12.099-10.228-12.099
				s-9.818,11.777-14.777,22.203l0.661-25.081C1111.881,384.731,1101.613,396.777,1103.421,408.927z"/>
		</g>
		<g>
			<path style="fill:#0D3285;" d="M1095.128,408.047c2.494,11.204,7.909,14.591,7.909,14.591l-2.512-39.351
				C1100.525,383.287,1092.466,396.086,1095.128,408.047z"/>
		</g>
		<g>
			<path style="fill:#171932;" d="M1162.935,437.436c-15.51-7.233-37.699,4.448-37.699,4.448s5.535,1.891,17.414,1.99
				c-0.924,1.731-1.583,3.615-1.583,5.714c0,6.82,5.526,12.349,12.347,12.349c6.819,0,12.348-5.529,12.348-12.349
				c0-1.109-0.356-2.105-0.631-3.127c9.948,1.985,18.704,4.395,18.704,4.395S1178.445,444.667,1162.935,437.436z"/>
		</g>
		<g>
			<path style="fill:#959BAB;" d="M938.911,370.434c-2.548,1.504-7.797,4.668-13.526,8.492c-0.199,2.049-0.334,4.02-0.334,5.805
				c0,3.105,0.243,7.981,0.621,13.866l14.862-29.086C939.967,369.813,939.469,370.13,938.911,370.434z"/>
		</g>
		<g>
			<path style="fill:#959BAB;" d="M964.025,562.323c-13.069-33.751-17.052-160.929-17.863-169.318
				c-0.198-2.036-0.901-6.609-1.845-12.329c-8.651,7.087-14.707,14.352-18.533,19.666c0.92,13.809,2.53,32.778,3.812,49.848
				c-12.486-5.784-37.926-14.505-49.519,3.715c-13.789,21.667,1.877,64.673,20.583,77.271c0.954-6.024,0.989-12.282,0.79-15.455
				c-0.081-1.411,0.99-2.629,2.4-2.717c1.4-0.166,2.633,0.992,2.72,2.395c0.037,0.594,0.538,9.476-1.12,18.216
				c1,0.372,2,0.751,3,0.924c1.456,0.251,2.868,0.365,4.247,0.396l26.849-55.883c0,0,5.869,14.849,5.869,35.19
				c0,20.34-23.37,66.976-19.227,87.094c2.332,2.889,4.657,5.628,6.978,8.321c4.429,5.141,8.83,9.892,13.205,14.354
				c23.857,17.874,63.135,37.246,86.997,45.425c20.321,6.967,43.499,8.005,59.388,7.665
				C1078.635,669.171,984.292,614.655,964.025,562.323z M909.181,520.54c0,0,0.941-29.147-7.745-37.369
				c-8.683-8.224-16.281,0-16.281,0s-4.362-21.215,8.683-26.134c18.117-6.83,29.852,25.51,29.312,43.964
				C922.605,519.452,909.181,520.54,909.181,520.54z"/>
		</g>
		<g>
			<path style="fill:#0D3285;" d="M1206.155,385.685c-0.049-0.142-0.117-0.268-0.162-0.413
				C1206.047,385.407,1206.1,385.555,1206.155,385.685z"/>
		</g>
		<g>
			<path style="fill:#0D3285;" d="M1205.423,383.684c-2.854-10.949-5.626-31.783-13.097-48.742
				C1198.671,351.261,1201.115,371.846,1205.423,383.684z"/>
		</g>
		<g>
			<path style="fill:#0D3285;" d="M1118.434,233.816c13.699,11.512,19.097,31.242,10.517,48.016
				c5.572-11.37,10.015-23.437,12.428-30.427c1.256-3.638,1.986-5.963,1.986-5.963c1.437-4.973,1.91-9.458,1.732-13.543
				c-0.961-21.879-23.096-30.923-46.284-25.483c-17.296,4.061-64.828-6.539-111.92,4.925c9.813-1.23,20.061-1.905,30.676-1.988
				C1062.343,209.253,1104.944,219.474,1118.434,233.816z"/>
		</g>
		<g>
			<path style="fill:#0D3285;" d="M1017.609,214.472c-23.148,0.181-44.331,3.35-63.028,8.894c-4.765,2.496-9.449,5.315-14.01,8.533
				c-10.992,7.753-21.295,17.704-30.396,30.502c-57.044,80.217-24.97,160.238-24.97,160.238s0.809-1.992,2.711-5.316
				c-7.367-20.814-18.262-70.922,19.134-127.074c24.866-37.34,59.976-51.091,85.044-56.059c5.092-1.01,10.048-1.701,14.811-2.181
				c28.644-7.249,55.728-9.394,69.018-10.419c1.532-0.12,3.084-0.037,4.632-0.02c-16.554-4.262-37.514-7.107-60.725-7.107
				C1019.088,214.463,1018.357,214.469,1017.609,214.472z"/>
		</g>
		<g>
			<path style="fill:#0D3285;" d="M911.311,293.09c-30.279,45.473-27.801,86.681-22.083,110.565
				c0.371-22.925,4.182-76.404,29.977-118.092c5.646-9.124,13.085-16.819,21.521-23.492
				C930.064,269.95,919.987,280.062,911.311,293.09z"/>
		</g>
		<g>
			<path style="fill:#0D3285;" d="M907.457,393.006c-0.006,0.007-0.011,0.013-0.018,0.02c2.921-2.78,6.316-5.629,9.952-8.485
				C913.536,387.405,909.969,390.337,907.457,393.006z"/>
		</g>
		<g>
			<polygon style="fill:#0D3285;" points="1128.692,282.343 1128.692,282.343 1128.692,282.341 			"/>
		</g>
		<g>
			<path style="fill:#0D3285;" d="M940.554,369.473c0,0-0.63,0.364-1.643,0.961c0.558-0.304,1.056-0.621,1.623-0.923
				L940.554,369.473z"/>
		</g>
		<g>
			<path style="fill:#0D3285;" d="M1152.456,247.389c-1.917,1.311-3.796,3.244-5.624,5.656
				c-12.036,15.881-21.595,51.333-21.595,51.333s24.775-4.399,47.581,7.273c-0.04-0.02-0.074-0.05-0.116-0.07
				c0,0,2.584,1.313,13.927,0l11.345-1.314l7.656,17.502v-19.691l14.768-2.733l9.292,32.817l0.11-12.222
				c-0.709-5.141-1.379-9.43-1.986-12.458c-5.221-26.109-60.045-65.27-60.045-65.27c1.101-0.367,2.852-0.088,4.939,0.544
				c-2.17-0.856-4.289-1.533-6.363-2.067c9.432-5.375,20.979-10.751,30.203-14.79c9.176-4.018,16.024-6.71,16.024-6.71
				s-13.72-6.077-30.802,1.362c-3.349,1.458-6.093,3.343-8.523,5.348c-5.712,4.711-9.085,10.194-10.843,13.933
				c-1.63-0.251-3.214-0.391-4.742-0.391c-0.875,0-1.745,0.248-2.613,0.557c3.032-4.578,6.6-9.423,10.228-14.099
				c10.435-13.447,21.351-25.454,21.351-25.454s-17.795-3.033-28.106,13.674c-2.442,3.957-3.907,7.986-4.841,11.779
				C1152.037,238.586,1152.171,244.386,1152.456,247.389z"/>
		</g>
		<g>
			<path style="fill:#F2E0E0;" d="M893.837,457.036c-13.045,4.92-8.683,26.134-8.683,26.134s7.599-8.224,16.281,0
				c8.686,8.223,7.745,37.369,7.745,37.369s13.424-1.088,13.967-19.54C923.689,482.545,911.954,450.206,893.837,457.036z"/>
		</g>
		<g>
			<path style="fill:#F2E0E0;" d="M1279.387,457.036c13.047,4.92,8.685,26.134,8.685,26.134s-7.599-8.224-16.284,0
				c-8.684,8.223-7.744,37.369-7.744,37.369s-3.072-0.306-6.328-2.575c2.092,3.41,5.493,8.995,9.548,15.809
				c12.542-4.249,24.808-23.678,29.309-43.734C1296.675,488.948,1298.729,464.726,1279.387,457.036z"/>
		</g>
		<g>
			<path style="fill:#959BAB;" d="M1255.901,515.82c-0.256-0.884-0.437-1.504-0.437-1.504s0.825,1.325,2.252,3.648
				c3.256,2.269,6.328,2.575,6.328,2.575s-0.94-29.147,7.744-37.369c8.685-8.224,16.284,0,16.284,0s4.362-21.215-8.685-26.134
				c-18.116-6.83-29.852,25.51-29.308,43.964c0.04,1.4,0.281,2.518,0.458,3.724L1255.901,515.82z"/>
		</g>
		<g>
			<path style="fill:#171932;" d="M1192.326,334.942c7.471,16.959,10.244,37.793,13.097,48.742c0.031,0.117,0.061,0.258,0.092,0.37
				c0.116,0.439,0.343,0.795,0.478,1.219c0.045,0.144,0.113,0.271,0.162,0.413c5.39,16.047,23.534,22.613,23.534,22.613
				s-3.82,22.299-3.275,28.94c0.548,6.643,16.516,18.865,16.516,18.865s-7.731-91.003-13.131-130.165l-0.11,12.222l-9.292-32.817
				l-14.768,2.733v19.691l-7.656-17.502l-11.345,1.314c-11.343,1.313-13.927,0-13.927,0c0.042,0.02,0.076,0.05,0.116,0.07
				C1181.692,316.039,1187.852,324.786,1192.326,334.942z"/>
		</g>
		<g>
			<path style="fill:#959BAB;" d="M1158.358,545.35c2.779,3.066,5.188,6.331,5.513,8.769c0.821,6.153,2.506,13.949,2.506,13.949
				s10.945-21.798,3.194-27.515c-3.466-2.556-7.908-3.602-11.795-4.02C1158.242,540.248,1158.503,543.109,1158.358,545.35z"/>
		</g>
		<g>
			<path style="fill:#171932;" d="M1258.577,644.64c-0.029,0.452,0.026,0.807-0.015,1.272c-0.002,0.033-0.011,0.067-0.015,0.1
				c0.318-0.578,0.608-1.153,0.921-1.733L1258.577,644.64z"/>
		</g>
		<g>
			<path style="fill:#0D3285;" d="M1206.089,658.227c0.031-13.511-4.542-19.688-4.542-19.688c-0.066-0.088-0.024-0.201-0.077-0.293
				c-25.925,15.472-58.256,31.235-88.977,37.651c-0.113,0.023-0.229,0.026-0.344,0.048c2.505,0.454,32.642,5.507,71.468-3.325
				v13.655l12.369-16.84c3.207-0.947,6.477-2.054,9.774-3.248C1205.958,663.162,1206.086,660.412,1206.089,658.227z"/>
		</g>
		<g>
			<path style="fill:#0D3285;" d="M1243.481,618.053c-1.251-0.631-1.781-2.16-1.161-3.42c0.629-1.261,2.129-1.786,3.399-1.192
				c0.599,0.292,14.414,7.347,12.858,31.2l0.892-0.361c6.661-12.326,12.022-24.383,14.009-33.951
				c-0.598-0.548-1.146-1.188-1.793-1.639c-10.34-7.205-20.135-4.965-20.552-4.865c-0.488,0.121-0.941-0.061-1.39-0.217
				c-0.775,1.117-1.653,2.099-2.612,2.972c-0.184,0.171-0.311,0.416-0.504,0.575c-7.994,6.621-22.671,17.332-40.871,28.474
				c0.826,1.141,5.481,8.192,5.453,22.611c-0.002,1.711-0.077,3.734-0.195,5.937c1.728-0.679,3.453-1.369,5.191-2.099l0.528-0.192
				l4.233,11.124l3.738-14.635l28.573-11.584c0.046-0.448,0.144-0.88,0.183-1.329
				C1255.322,624.23,1243.968,618.293,1243.481,618.053z"/>
		</g>
		<g>
			<path style="fill:#F2E0E0;" d="M1239.769,689.181c0.087-0.164,7.421-13.554,11.419-30.423
				c-14.249,23.704-29.775,44.549-29.775,44.549c0.528-0.278,1.146-0.701,1.703-1.02c4.764-2.747,10.399-6.912,16.533-12.106
				C1239.684,689.841,1239.591,689.5,1239.769,689.181z"/>
		</g>
		<g>
			<path style="fill:#F2E0E0;" d="M1286.25,637.437c-0.037-0.201-3.646-18.754-12.771-27.108
				c-1.987,9.568-7.347,21.625-14.009,33.951c-0.314,0.58-0.603,1.155-0.921,1.733c-1.26,14.198-5.948,27.362-9.631,35.905
				c13.827-12.846,28.513-28.728,39.5-42.51C1287.371,639.243,1286.456,638.535,1286.25,637.437z"/>
		</g>
		<g>
			<path style="fill:#F2E0E0;" d="M1255.464,514.316c0,0,0.181,0.62,0.437,1.504c2.611,9.007,17.254,60.492,18.483,86.341
				c0.032,0.646-0.11,1.426-0.135,2.115c0.122,0.082,0.239,0.129,0.36,0.214c11.555,8.046,15.945,28.319,16.562,31.43
				c8.276-10.731,13.886-19.772,14.298-24.299c0.93-10.235-23.13-52.508-38.205-77.847c-4.055-6.814-7.456-12.399-9.548-15.809
				C1256.289,515.642,1255.464,514.316,1255.464,514.316z"/>
		</g>
		<g>
			<path style="fill:#171932;" d="M1239.769,689.181c-0.178,0.318-0.085,0.66-0.121,0.999c-0.101,0.984,0.178,1.974,1.101,2.486
				c0.388,0.225,0.819,0.331,1.249,0.331c0.89,0,1.762-0.47,2.232-1.306c0.199-0.358,2.223-4.057,4.687-9.775
				c3.684-8.542,8.371-21.707,9.631-35.905c0.004-0.033,0.012-0.067,0.015-0.1c0.04-0.465-0.015-0.82,0.015-1.272
				c1.556-23.852-12.259-30.908-12.858-31.2c-1.271-0.593-2.771-0.068-3.399,1.192c-0.62,1.26-0.09,2.789,1.161,3.42
				c0.487,0.24,11.841,6.177,9.98,27.408c-0.039,0.449-0.137,0.881-0.183,1.329c-0.431,4.113-1.174,8.11-2.089,11.968
				C1247.19,675.627,1239.856,689.017,1239.769,689.181z"/>
		</g>
		<g>
			<path style="fill:#171932;" d="M1211.209,658.239c0.028-14.419-4.627-21.47-5.453-22.611c-0.06-0.084-0.153-0.216-0.169-0.237
				c-0.869-1.105-2.449-1.3-3.57-0.439c-1.025,0.793-1.183,2.197-0.547,3.294c0.052,0.092,0.011,0.205,0.077,0.293
				c0,0,4.572,6.177,4.542,19.688c-0.004,2.186-0.132,4.936-0.33,7.96c-1.104,16.927-4.679,43.691-4.723,44.011
				c-0.189,1.399,0.801,2.69,2.202,2.874c0.111,0.021,0.229,0.026,0.339,0.026c1.27,0,2.362-0.934,2.542-2.22
				c0.176-1.361,3.99-29.9,4.894-46.702C1211.133,661.972,1211.207,659.95,1211.209,658.239z"/>
		</g>
		<g>
			<path style="fill:#171932;" d="M1274.608,604.489c-0.121-0.084-0.238-0.132-0.36-0.214c-8.991-6.107-17.659-6.233-21.808-5.813
				c-0.302,0.029-0.509,0.057-0.76,0.091c-0.984,0.132-1.675,0.272-1.781,0.298c-1.368,0.344-2.198,1.724-1.859,3.098
				c0.163,0.654,0.592,1.168,1.12,1.51c0.176,0.113,0.385,0.079,0.582,0.148c0.449,0.156,0.902,0.338,1.39,0.217
				c0.417-0.1,10.212-2.34,20.552,4.865c0.647,0.452,1.195,1.091,1.793,1.639c9.126,8.354,12.735,26.907,12.771,27.108
				c0.206,1.099,1.122,1.806,2.168,1.97c0.127,0.018,0.222,0.127,0.353,0.127c0.15,0,0.312-0.015,0.461-0.045
				c1.391-0.256,2.312-1.587,2.06-2.974c-0.01-0.055-0.083-0.406-0.121-0.594C1290.553,632.808,1286.163,612.535,1274.608,604.489z"
				/>
		</g>
		<g>
			<path style="fill:#171932;" d="M889.913,257.106c-57.035,70.644-33.078,151.191-32.819,151.982
				c0.352,1.084,1.351,1.769,2.434,1.769c0.259,0,0.528-0.039,0.788-0.125c1.351-0.439,2.081-1.881,1.642-3.226
				c-0.24-0.77-23.398-78.642,31.938-147.178c9.32-11.546,22.32-21.043,37.978-28.429c7.022-3.313,14.63-6.137,22.707-8.533
				c18.697-5.544,39.88-8.713,63.028-8.894c0.748-0.004,1.479-0.01,2.22-0.01c23.21,0,44.171,2.845,60.725,7.107
				c17.391,4.479,29.914,10.521,34.921,16.529c0.909,1.087,2.512,1.227,3.61,0.326c1.083-0.906,1.23-2.52,0.329-3.607
				c-0.282-0.34-0.664-0.666-0.98-1.002c-13.49-14.342-56.092-24.563-100.865-24.464c-10.615,0.083-20.863,0.758-30.676,1.988
				c-25.584,3.21-48.14,10.252-66.376,20.558C908.201,238.86,897.831,247.295,889.913,257.106z"/>
		</g>
		<g>
			<path style="fill:#171932;" d="M907.049,290.248c-37.396,56.152-26.501,106.259-19.134,127.074
				c2.269,6.411,4.217,10.14,4.3,10.288c0.459,0.851,1.34,1.332,2.24,1.332c0.422,0,0.842-0.098,1.23-0.314
				c1.242-0.684,1.69-2.236,1.02-3.478c-0.122-0.215-4.295-8.208-7.477-21.494c-5.718-23.884-8.197-65.092,22.083-110.565
				c8.677-13.028,18.753-23.139,29.415-31.019c44.949-33.222,100.487-26.082,107.232-23.369c1.158,0.638,2.619,0.304,3.36-0.813
				c0.791-1.174,0.481-2.766-0.69-3.554c-2.127-1.433-20.39-4.672-43.724-2.326c-4.762,0.48-9.719,1.171-14.811,2.181
				C967.025,239.157,931.915,252.908,907.049,290.248z"/>
		</g>
		<g>
			<path style="fill:#0D3285;" d="M1157.434,549.17c-0.182,0.162-1.401,1.281-3.38,2.993
				C1155.624,551.404,1156.758,550.411,1157.434,549.17z"/>
		</g>
		<g>
			<path style="fill:#0D3285;" d="M1003.136,523.051c-1.771,14.914-3.524,22.089-1.404,26.107
				c6.547,3.881,25.526,6.671,31.142,4.773c5.998-2.026,12.636-6.699,20.845-10.047c8.208-3.35,26.298,2.324,26.298,2.324
				s13.978-4.56,22.749-2.995c0.98,0.128,1.884,0.344,2.684,0.671c8.209,3.348,14.847,8.021,20.844,10.047
				c5.618,1.898,24.593-0.88,31.14-4.761c0.544-1.034,0.826-2.29,0.924-3.82c0.145-2.241-0.116-5.102-0.582-8.817
				c-0.454-3.614-1.096-8.02-1.744-13.482c-0.255-2.158-13.781-13.047-17.849-10.13c-4.066,2.917-8.271,17.019-8.271,17.019
				s20.274-6.358,20.78-2.493c1.672,12.741-16.559,11.159-19.719,9.702c-2.135-0.985-20.636-9.208-33.478-13.571
				c-6.2-2.107-11.098-3.327-12.168-2.376c-1.896,1.681-4.139,5.545-5.741,8.565c-1.604-3.021-3.846-6.885-5.743-8.565
				c-2.475-2.197-25.301,7.126-37.783,12.491c-4.092,1.758-7.081,3.095-7.862,3.456c-3.164,1.457-21.393,3.039-19.722-9.702
				c0.507-3.864,20.783,2.493,20.783,2.493s-0.356-1.168-0.924-2.833c-0.126-0.369-0.262-0.76-0.41-1.177
				c-1.56-4.401-4.267-11.092-6.94-13.009c-1.03-0.737-2.669-0.583-4.543,0.083c-0.558,0.198-1.157,0.506-1.747,0.786
				c-0.425,0.201-0.829,0.36-1.26,0.596C1008.511,517.07,1003.295,521.719,1003.136,523.051z"/>
		</g>
		<g>
			<path style="fill:#171932;" d="M1080.488,563.059c-0.016,0.02,0.011,0.026,0.128,0.015c-0.029-0.006-0.076-0.015-0.105-0.021
				C1080.505,563.057,1080.493,563.058,1080.488,563.059z"/>
		</g>
		<g>
			<path style="fill:#171932;" d="M1126.294,553.931c-5.996-2.026-12.635-6.699-20.844-10.047c-0.798-0.327-1.739-0.502-2.684-0.671
				c-8.771-1.565-22.749,2.995-22.749,2.995s-18.09-5.674-26.298-2.324c-8.209,3.348-14.847,8.021-20.845,10.047
				c-5.617,1.898-24.595-0.892-31.142-4.773c0.181,0.164,1.404,1.294,3.385,3.005c5.16,4.461,14.895,12.509,21.625,16.061
				c1.388,0.731,2.694,1.34,3.754,1.611c8.284,2.119,44.948-5.733,49.992-6.775c0.005-0.006-0.05-0.001-0.017-0.012
				c0.011,0.002,0.029,0.006,0.04,0.006c0.022-0.004,0.066-0.012,0.087-0.017c0.803-0.081,0.347,0.006,0.018,0.038
				c7.127,1.24,40.311,8.741,48.056,6.76c6.209-1.587,19.157-12.292,25.383-17.672c1.979-1.711,3.198-2.83,3.38-2.993
				C1150.887,553.051,1131.912,555.829,1126.294,553.931z"/>
		</g>
		<g>
			<path style="fill:#0C8FE7;" d="M838.316,876.786l14.441,5.579l0,0l175.897,67.95l19.659-43.37l35.925,71.699l-51.455-3.958
				l-186.242-67.752c-71.841,21.105-137.487,85.747-131.906,105.326c5.59,19.609,100.157,125.785,127.838,165.525
				c34.434,49.435,71.272,212.139,74.37,226.011h446.83c0.015-0.326,8.378-185.883,14.648-223.498
				c6.273-37.644,43.921-87.842,43.921-87.842s-14.64,46.013-20.917,106.666c-6.266,60.583,57.254,204.348,57.399,204.674h132.83
				l-25.562-107.89l-19.881-83.913c2.48,14.682,3.954,23.769,3.954,23.769s-33.978-163.086-69.653-207.252
				c-34.545-42.773-128.256-140.683-134.155-146.84c-2.861-1.593-5.723-3.176-8.603-4.735l12.25-4.803
				c-5.369-11.674-16.563-34.864-24.08-42.382c-7.196-7.195-55.836-28.765-83.843-40.838l-29.28-8.883h-0.003l0.013,0.061
				l1.888,8.984l80.479,31.033l-50.631,16.445l-117.006,63.072l-37.18,71.415l-0.002,0.002l-0.66-0.394l-37.531-71.023
				L936.123,838.05l-2.817-1.497l-51.39-16.445l78.027-31.158l1.327-7.646l-129.858,38.805l-6.971,51.318l12.646,4.886
				c0.06-0.028,0.122-0.061,0.183-0.089C837.312,876.201,837.708,876.42,838.316,876.786z M1131.14,906.945l19.369,43.37
				l187.066-73.347l22.244,18.929l-213.378,78.789h-54.708L1131.14,906.945z"/>
		</g>
		<g>
			<path style="fill:#171932;" d="M1032.783,974.686l51.455,3.958l-35.925-71.699l-19.659,43.37l-175.897-67.95l0,0l-14.441-5.579
				c4.694,2.834,23.86,15.808,21.641,17.482c-5.089,3.839-7.565,10.945-13.046,12.544c-0.125,0.037-0.245,0.085-0.37,0.121
				L1032.783,974.686z"/>
		</g>
		<g>
			<polygon style="fill:#171932;" points="1214.273,788.95 1216.733,824.566 1218.098,825.156 1244.447,836.553 1295.079,820.108 
				1214.6,789.075 1214.275,788.95 			"/>
		</g>
		<g>
			<polygon style="fill:#171932;" points="1091.734,974.686 1146.441,974.686 1359.819,895.897 1337.575,876.968 1150.509,950.315 
				1131.14,906.945 			"/>
		</g>
		<g>
			<path style="fill:#171932;" d="M1401.325,1199.122c6.277-60.653,20.917-106.666,20.917-106.666s-37.648,50.198-43.921,87.842
				c-6.271,37.615-14.634,223.172-14.648,223.498l-0.001,0.015h95.059l-0.006-0.015
				C1458.579,1403.47,1395.059,1259.705,1401.325,1199.122z"/>
		</g>
		<g>
			<path style="fill:#171932;" d="M842.473,1177.785c-27.681-39.741-122.248-145.917-127.838-165.525
				c-5.581-19.578,60.065-84.221,131.906-105.326c0.124-0.035,0.245-0.084,0.37-0.121c5.481-1.599,7.956-8.706,13.046-12.544
				c2.219-1.674-16.947-14.648-21.641-17.482c-0.608-0.366-1.004-0.586-1.047-0.564c-0.061,0.028-0.123,0.061-0.183,0.089
				c-76.829,36.836-161.073,86.354-171.269,136.603c-0.152-0.037-0.254-0.059-0.254-0.059l-0.365,2.723
				c-0.215,1.068-0.439,2.509-0.568,4.249l-38.252,285.917l-6.73,50.302l-6.46,48.284l-0.122,0.907h218.185l0.018-0.907l0.011-0.535
				l0.033-1.58c0.162,0.632,0.305,1.185,0.409,1.58c0.067,0.259,0.098,0.377,0.139,0.535c0.061,0.231,0.137,0.52,0.137,0.52h85.079
				c0,0-0.039-0.181-0.115-0.52c-0.027-0.124-0.083-0.372-0.12-0.535C913.745,1389.924,876.907,1227.22,842.473,1177.785z
				 M712.032,1304.617c-30.196-48.886-17.163-208.624-12.958-252.072c2.968,0.524,6.156,0.956,9.642,1.261
				c20.768,1.815,46.628,24.554,53.841,34.384c16.756,22.833,30.458,89.608,39.234,156.434
				c6.846,52.152,15.513,96.184,21.804,124.817C801.358,1365.433,740.406,1350.558,712.032,1304.617z"/>
		</g>
		<g>
			<path style="fill:#171932;" d="M906.568,515.399c-0.088-1.402-1.321-2.561-2.72-2.395c-1.41,0.088-2.48,1.306-2.4,2.717
				c0.199,3.173,0.165,9.431-0.79,15.455c-0.82,5.176-2.309,10.185-5.013,12.881c-1.471,1.459-3.153,2.104-5.282,1.98
				c-4.831-0.314-7.351-3.5-8.103-6.376c-0.748-2.9-0.008-7.012,4.352-9.832c1.191-0.77,1.531-2.358,0.762-3.541
				c-0.762-1.186-2.362-1.51-3.541-0.761c-5.562,3.6-8.064,9.514-6.523,15.426c1.501,5.785,6.494,9.786,12.714,10.197
				c0.302,0.018,0.602,0.03,0.9,0.03c3.203,0,6.013-1.178,8.335-3.498c3.318-3.305,5.163-8.658,6.189-14.068
				C907.106,524.875,906.604,515.993,906.568,515.399z"/>
		</g>
		<g>
			<path style="fill:#F2E0E0;" d="M1325.824,829.751c7.517,7.518,18.711,30.708,24.08,42.382c1.91,4.153,3.099,6.882,3.099,6.882
				l-5.096-66.251l-10.189-2.617l-115.523-29.662c0,0,8.113,3.394,19.784,8.428C1269.989,800.986,1318.628,822.556,1325.824,829.751
				z"/>
		</g>
		<g>
			<path style="fill:#F2E0E0;" d="M1484.353,969.712c-16.379-12.106-47.709-32.216-76.469-50.22
				c-26.705-16.718-51.079-31.554-59.1-36.42c-1.788-1.085-2.821-1.709-2.821-1.709s0.103,0.106,0.295,0.308
				c5.899,6.156,99.61,104.067,134.155,146.84c35.675,44.166,69.653,207.252,69.653,207.252s-1.474-9.088-3.954-23.769
				c-10.346-61.218-38.406-220.744-52.107-234.446C1492.111,975.653,1488.739,972.955,1484.353,969.712z"/>
		</g>
		<g>
			<path style="fill:#F2E0E0;" d="M1242.93,456.104c0,0,16.671-6.939,36.456,0.931c19.343,7.69,17.288,31.912,17.186,33.004
				c-0.002,0.026-0.009,0.103-0.009,0.103s10.444-38.292-8.702-46.994c-4.271-1.941-8.462-2.778-12.453-3.074
				c-13.902-1.035-24.968,5.685-24.968,5.685s5.219-112.263-3.482-134.018c-5.658-14.146-32.983-38.159-54.305-52.317
				c-8.012-5.32-15.114-9.201-19.947-10.667c-2.087-0.632-3.839-0.912-4.939-0.544c0,0,54.824,39.161,60.045,65.27
				c0.607,3.028,1.277,7.317,1.986,12.458C1235.2,365.102,1242.93,456.104,1242.93,456.104z"/>
		</g>
		<g>
			<path style="fill:#F2E0E0;" d="M1792.939,491.438h-54.112h-184.45h-35.96v52.898v127.691h124.324h150.198h46.29h25.327h270.717
				V491.438h-270.717h-25.327H1792.939z M1859.452,624.925h-256.812v-23.126h256.812V624.925z M2015.004,624.925h-108.77v-23.126
				h108.77V624.925z M2016.289,551.203v23.125h-413.648v-23.125H2016.289z"/>
		</g>
		<g>
			<polygon style="fill:#F2E0E0;" points="1792.939,726.429 1613.795,726.429 1512.609,726.429 1512.609,780.148 1585.212,780.148 
				1792.939,780.148 1839.229,780.148 1839.591,780.148 1839.591,726.429 1839.229,726.429 			"/>
		</g>
		<g>
			<rect x="1880.76" y="726.429" style="fill:#F2E0E0;" width="83.906" height="53.719"/>
		</g>
		<g>
			<rect x="2008.943" y="726.429" style="fill:#F2E0E0;" width="126.932" height="53.719"/>
		</g>
		<g>
			<polygon style="fill:#0C8FE7;" points="443.525,907.165 443.525,748.868 347.624,748.868 310.906,748.868 310.906,633.597 
				347.624,596.873 349.839,594.656 347.624,592.442 345.753,590.571 305.125,631.203 305.125,754.65 347.624,754.65 
				437.743,754.65 437.743,901.383 347.624,901.383 313.413,901.383 313.413,999.969 342.444,1028.999 346.533,1024.911 
				319.194,997.576 319.194,907.165 347.624,907.165 			"/>
		</g>
		<g>
			<rect x="1602.641" y="551.203" style="fill:#0C8FE7;" width="413.648" height="23.125"/>
		</g>
		<g>
			<rect x="1602.641" y="601.799" style="fill:#0C8FE7;" width="256.811" height="23.126"/>
		</g>
		<g>
			<rect x="1906.234" y="601.799" style="fill:#0C8FE7;" width="108.77" height="23.126"/>
		</g>
	</g>
</g>
</svg>
